<svg width="524" height="397" viewBox="0 0 524 397" fill="none" xmlns="http://www.w3.org/2000/svg">
<g clip-path="url(#clip0_19_31)">
<path d="M507.935 0H49.4143C45.1552 0.00500691 41.0721 1.6591 38.0605 4.59945C35.0489 7.53981 33.3547 11.5263 33.3495 15.6846V288.469C33.3547 292.627 35.0489 296.614 38.0605 299.554C41.0721 302.494 45.1552 304.148 49.4143 304.153H507.935C512.194 304.148 516.277 302.494 519.289 299.554C522.301 296.614 523.995 292.627 524 288.469V15.6846C523.995 11.5263 522.301 7.53981 519.289 4.59946C516.277 1.6591 512.194 0.00500874 507.935 0ZM522.584 288.469C522.584 290.347 522.205 292.207 521.469 293.942C520.733 295.677 519.654 297.254 518.294 298.582C516.933 299.91 515.318 300.963 513.541 301.682C511.764 302.401 509.859 302.771 507.935 302.771H49.4143C45.5292 302.771 41.8032 301.264 39.0561 298.582C36.3089 295.9 34.7656 292.262 34.7656 288.469V108.994C34.7656 94.8626 37.6165 80.8692 43.1555 67.8131C48.6946 54.757 56.8133 42.894 67.0482 32.9013C77.283 22.9086 89.4336 14.982 102.806 9.57398C116.179 4.16598 130.511 1.38251 144.985 1.38252H507.935C509.859 1.38252 511.764 1.75245 513.541 2.4712C515.318 3.18995 516.933 4.24343 518.294 5.57151C519.654 6.89958 520.733 8.47624 521.469 10.2115C522.205 11.9467 522.584 13.8065 522.584 15.6846V288.469Z" fill="#010110"/>
<path d="M480.683 232.077H270.666C268.486 232.074 266.396 231.227 264.855 229.722C263.313 228.217 262.446 226.177 262.443 224.048V157.456C262.446 155.327 263.313 153.287 264.855 151.781C266.396 150.276 268.486 149.43 270.666 149.427H480.683C482.863 149.43 484.953 150.276 486.495 151.781C488.037 153.287 488.904 155.327 488.906 157.456V224.048C488.904 226.177 488.037 228.217 486.495 229.722C484.953 231.228 482.863 232.074 480.683 232.077Z" fill="#BBC4D1"/>
<path d="M153.217 44.0382C156.596 44.0382 159.336 41.3041 159.336 37.9313C159.336 34.5586 156.596 31.8244 153.217 31.8244C149.838 31.8244 147.099 34.5586 147.099 37.9313C147.099 41.3041 149.838 44.0382 153.217 44.0382Z" fill="#010110"/>
<path d="M132.08 44.0382C135.459 44.0382 138.199 41.3041 138.199 37.9313C138.199 34.5586 135.459 31.8244 132.08 31.8244C128.701 31.8244 125.962 34.5586 125.962 37.9313C125.962 41.3041 128.701 44.0382 132.08 44.0382Z" fill="#010110"/>
<path d="M110.943 44.0382C114.323 44.0382 117.062 41.3041 117.062 37.9313C117.062 34.5586 114.323 31.8244 110.943 31.8244C107.564 31.8244 104.825 34.5586 104.825 37.9313C104.825 41.3041 107.564 44.0382 110.943 44.0382Z" fill="#010110"/>
<path d="M353.138 100.308H267.564C266.152 100.308 264.798 99.7599 263.799 98.785C262.801 97.8101 262.24 96.4879 262.24 95.1093C262.24 93.7306 262.801 92.4084 263.799 91.4335C264.798 90.4587 266.152 89.911 267.564 89.911H353.138C354.55 89.911 355.904 90.4587 356.903 91.4335C357.901 92.4084 358.462 93.7306 358.462 95.1093C358.462 96.4879 357.901 97.8101 356.903 98.785C355.904 99.7599 354.55 100.308 353.138 100.308Z" fill="#BBC4D1"/>
<path d="M419.92 117.902H267.564C266.152 117.902 264.798 117.354 263.799 116.379C262.801 115.404 262.24 114.082 262.24 112.703C262.24 111.325 262.801 110.003 263.799 109.028C264.798 108.053 266.152 107.505 267.564 107.505H419.92C421.332 107.505 422.686 108.053 423.685 109.028C424.683 110.003 425.244 111.325 425.244 112.703C425.244 114.082 424.683 115.404 423.685 116.379C422.686 117.354 421.332 117.902 419.92 117.902Z" fill="#BBC4D1"/>
<path d="M114.919 389.231L122.062 389.231L125.46 362.33L114.918 362.331L114.919 389.231Z" fill="#FFB6B6"/>
<path d="M114.667 396.507L136.633 396.506V396.235C136.633 394.021 135.732 391.898 134.129 390.332C132.526 388.767 130.351 387.887 128.084 387.887L124.071 384.915L116.585 387.888L114.667 387.888L114.667 396.507Z" fill="#010110"/>
<path d="M73.6273 389.231L80.7704 389.231L84.1682 362.33L73.6259 362.331L73.6273 389.231Z" fill="#FFB6B6"/>
<path d="M73.3756 396.507L95.3415 396.506V396.235C95.3414 394.021 94.4405 391.898 92.8372 390.332C91.2338 388.767 89.0593 387.887 86.7918 387.887L82.7789 384.915L75.2927 387.888L73.3752 387.888L73.3756 396.507Z" fill="#010110"/>
<path d="M163.034 210.624L138.697 188.34L145.289 177.56L169.291 204.359C170.716 204.219 172.15 204.51 173.399 205.193C174.647 205.876 175.651 206.918 176.272 208.177C176.894 209.436 177.104 210.851 176.873 212.231C176.643 213.61 175.983 214.887 174.984 215.888C173.984 216.889 172.694 217.565 171.287 217.825C169.881 218.085 168.426 217.916 167.121 217.341C165.816 216.766 164.724 215.814 163.993 214.612C163.262 213.41 162.927 212.018 163.034 210.624Z" fill="#FFB6B6"/>
<path d="M66.6387 243.067C66.6387 243.067 63.6173 269.615 70.1636 294.689L67.698 306.81L73.185 376.302H86.5035L95.8451 261.749L113.283 376.302H127.272L125.555 313.372L131.61 252.899L129.08 239.133L66.6387 243.067Z" fill="#010110"/>
<path d="M103.442 139.634H73.706L68.7051 152.048L69.9118 250.195C69.9118 250.195 128.828 250.195 132.857 246.262L120.268 203.489L115.736 148.917L103.442 139.634Z" fill="#3270F5"/>
<path d="M119.764 148.425L140.914 170.549L148.467 175.465L150.481 181.857L141.921 196.115L132.353 192.673L129.332 181.857L111.578 167.686L109.693 144.984L119.764 148.425Z" fill="#010110"/>
<path d="M100.67 140.336L104.15 154.842L108.938 206.685L115.484 246.017H134.37L123.037 203.244L118.505 148.179L103.398 139.33L100.67 140.336Z" fill="#010110"/>
<path d="M76.4162 140.336L81.7454 157.029L90.3059 212.093L77.2134 251.424L64.5018 251.618L61.194 239.416L68.6529 208.16L58.5814 148.179L73.6882 139.33L76.4162 140.336Z" fill="#010110"/>
<path d="M87.4194 134.718C97.374 134.718 105.444 126.84 105.444 117.12C105.444 107.401 97.374 99.5224 87.4194 99.5224C77.4647 99.5224 69.3949 107.401 69.3949 117.12C69.3949 126.84 77.4647 134.718 87.4194 134.718Z" fill="#FFB6B6"/>
<path d="M77.021 125.832C77.021 125.832 76.1553 127.114 77.8267 132.554L70.1636 126.547L69.3253 119.95C69.3253 119.95 65.4252 106.351 78.7971 99.8229C78.7971 99.8229 90.4976 93.8391 101.641 102.543C101.641 102.543 106.098 103.087 105.541 103.631C104.984 104.175 102.198 105.807 104.984 105.263C107.77 104.719 109.441 101.999 109.441 103.631C109.441 105.263 104.427 109.071 104.427 109.071C104.427 109.071 106.377 114.238 93.0048 107.167C91.5745 110.658 88.8191 113.475 85.3132 115.031L85.7422 115.44L82.4187 122.398C82.4187 122.398 78.9711 117.944 77.021 125.832Z" fill="#010110"/>
<path d="M78.4357 263.154L138.993 129.84C139.624 128.457 140.79 127.374 142.237 126.83C143.684 126.285 145.292 126.323 146.711 126.935L191.056 146.137C192.472 146.752 193.581 147.891 194.139 149.304C194.697 150.716 194.658 152.287 194.031 153.672L133.473 286.985C132.843 288.369 131.676 289.451 130.23 289.996C128.783 290.54 127.174 290.502 125.756 289.89L81.4108 270.689C79.9942 270.073 78.8853 268.934 78.3275 267.522C77.7698 266.109 77.8087 264.538 78.4357 263.154Z" fill="#DCE4EE"/>
<path d="M78.4357 263.154L138.993 129.84C139.624 128.457 140.79 127.374 142.237 126.83C143.684 126.285 145.293 126.323 146.711 126.935L191.056 146.137C192.472 146.752 193.581 147.891 194.139 149.304C194.697 150.716 194.658 152.287 194.031 153.672L133.473 286.985C132.843 288.369 131.676 289.451 130.23 289.996C128.783 290.54 127.174 290.502 125.756 289.89L81.4108 270.689C79.9942 270.073 78.8853 268.934 78.3275 267.522C77.7698 266.109 77.8087 264.538 78.4357 263.154ZM193.09 153.264C193.607 152.123 193.639 150.829 193.179 149.665C192.719 148.501 191.806 147.563 190.638 147.055L146.293 127.854C145.125 127.349 143.799 127.318 142.607 127.767C141.415 128.215 140.453 129.108 139.934 130.247L79.3765 263.561C78.8598 264.702 78.8277 265.997 79.2873 267.161C79.7469 268.324 80.6607 269.263 81.8281 269.77L126.173 288.972C127.342 289.476 128.667 289.507 129.86 289.059C131.052 288.61 132.013 287.718 132.532 286.578L193.09 153.264Z" fill="#3F3D56"/>
<path d="M144.631 208.643C157.146 208.643 167.291 198.738 167.291 186.519C167.291 174.3 157.146 164.395 144.631 164.395C132.116 164.395 121.971 174.3 121.971 186.519C121.971 198.738 132.116 208.643 144.631 208.643Z" fill="#BBC4D1"/>
<path d="M133.607 232.912C146.122 232.912 156.267 223.007 156.267 210.788C156.267 198.569 146.122 188.664 133.607 188.664C121.092 188.664 110.947 198.569 110.947 210.788C110.947 223.007 121.092 232.912 133.607 232.912Z" fill="#010110"/>
<path d="M113.396 255.281C110.675 254.104 108.219 252.414 106.168 250.309C104.116 248.205 102.51 245.726 101.439 243.015C100.369 240.305 99.8557 237.414 99.9293 234.51C100.003 231.605 100.662 228.744 101.868 226.088C103.075 223.432 104.805 221.034 106.961 219.031C109.116 217.028 111.655 215.459 114.431 214.414C117.208 213.369 120.168 212.868 123.143 212.94C126.118 213.012 129.049 213.655 131.769 214.833C143.21 219.787 155.754 245.194 143.297 244.027C129.031 242.69 124.836 260.235 113.396 255.281Z" fill="#3270F5"/>
<path d="M82.9168 242.157L65.21 199.082L79.3701 201.847L91.1875 238.784C92.5542 239.2 93.7567 240.017 94.6318 241.123C95.5068 242.229 96.012 243.572 96.0789 244.968C96.1457 246.364 95.7709 247.746 95.0053 248.927C94.2397 250.108 93.1204 251.031 91.7994 251.569C90.4784 252.108 89.0197 252.237 87.6212 251.938C86.2227 251.639 84.9522 250.928 83.9822 249.9C83.0122 248.872 82.3897 247.577 82.1991 246.192C82.0085 244.807 82.2591 243.398 82.9168 242.157Z" fill="#FFB6B6"/>
<path d="M54.2461 158.687C53.2153 169.791 55.3502 179.54 59.179 188.565L59.6707 196.592L63.607 202.064L80.3919 204.204L83.4737 194.714L76.5748 185.752L75.9948 163.371L58.7818 147.996L54.2461 158.687Z" fill="#010110"/>
<path d="M38.4158 385.018C38.0867 385.033 37.7609 384.949 37.4826 384.777C37.2042 384.605 36.9868 384.353 36.8597 384.057C36.7326 383.76 36.702 383.432 36.7721 383.118C36.8421 382.804 37.0095 382.518 37.2514 382.3L37.3615 381.872C37.347 381.838 37.3324 381.804 37.3177 381.77C36.9862 381.005 36.4306 380.353 35.7209 379.896C35.0111 379.439 34.1787 379.196 33.3284 379.199C32.478 379.202 31.6475 379.451 30.9412 379.913C30.235 380.376 29.6844 381.032 29.3587 381.798C28.057 384.859 26.3996 387.926 25.9916 391.162C25.8118 392.593 25.8876 394.043 26.2156 395.448C23.1582 388.937 21.5706 381.859 21.5604 374.696C21.5597 372.899 21.662 371.103 21.8667 369.316C22.036 367.852 22.2707 366.398 22.571 364.954C24.2097 357.121 27.7281 349.78 32.8372 343.532C35.31 342.215 37.3098 340.189 38.5672 337.728C39.0226 336.843 39.3446 335.899 39.5229 334.924C39.2439 334.96 38.4711 330.812 38.6815 330.558C38.2928 329.982 37.597 329.696 37.1724 329.134C35.0609 326.338 32.1518 326.827 30.6331 330.625C27.3888 332.223 27.3574 334.875 29.3481 337.425C30.6145 339.047 30.7886 341.242 31.8998 342.979C31.7854 343.122 31.6665 343.26 31.5522 343.403C29.4624 346.027 27.6409 348.844 26.114 351.814C26.4853 348.487 26.0422 345.12 24.8209 341.992C23.5832 339.077 21.2632 336.622 19.2202 334.101C18.6799 333.424 17.9461 332.919 17.1116 332.649C16.2771 332.379 15.3794 332.357 14.5319 332.585C13.6844 332.813 12.9253 333.281 12.3503 333.931C11.7754 334.58 11.4105 335.381 11.3018 336.233C11.2977 336.27 11.2936 336.307 11.2896 336.344C11.593 336.511 11.8901 336.689 12.1807 336.876C12.5458 337.114 12.8287 337.455 12.9924 337.853C13.156 338.25 13.1927 338.687 13.0977 339.106C13.0028 339.524 12.7805 339.905 12.46 340.198C12.1396 340.491 11.736 340.683 11.302 340.749L11.2575 340.755C11.3656 341.823 11.5567 342.881 11.8291 343.921C9.20824 353.817 14.8666 357.421 22.9459 357.583C23.1243 357.672 23.2981 357.761 23.4764 357.846C21.9423 362.091 20.98 366.512 20.6138 370.999C20.4064 373.647 20.4186 376.306 20.6503 378.951L20.6366 378.857C20.0512 375.916 18.4441 373.262 16.0865 371.343C12.585 368.535 7.63798 367.501 3.86044 365.243C3.45898 364.992 2.99218 364.857 2.51509 364.856C2.038 364.855 1.57053 364.987 1.16781 365.237C0.765094 365.487 0.443928 365.844 0.242194 366.266C0.0404598 366.688 -0.0334268 367.157 0.0292486 367.619L0.0446974 367.718C0.607822 367.942 1.15611 368.2 1.68637 368.49C1.98982 368.657 2.28686 368.835 2.57749 369.022C2.94261 369.261 3.22552 369.601 3.38916 369.999C3.5528 370.397 3.58953 370.833 3.49455 371.252C3.39957 371.671 3.1773 372.051 2.85687 372.344C2.53644 372.638 2.13279 372.829 1.69881 372.895L1.65433 372.901C1.62233 372.906 1.59486 372.91 1.56292 372.915C2.52508 375.158 3.87551 377.222 5.55506 379.018C7.19385 387.657 14.2324 388.476 21.7616 385.961H21.7661C22.5922 389.466 23.7892 392.877 25.3376 396.14H38.0961C38.1419 396.002 38.183 395.859 38.2242 395.721C37.0432 395.793 35.8576 395.724 34.6938 395.515C35.6404 394.381 36.5871 393.238 37.5337 392.104C37.5548 392.083 37.5746 392.061 37.5931 392.037C38.0733 391.457 38.558 390.881 39.0382 390.301L39.0384 390.3C39.064 388.521 38.8545 386.745 38.4158 385.018Z" fill="#BBC4D1"/>
<path d="M181.116 396.177C181.116 396.286 181.095 396.393 181.053 396.493C181.01 396.593 180.948 396.683 180.87 396.76C180.792 396.836 180.699 396.897 180.596 396.938C180.494 396.979 180.384 397 180.273 397H0.941774C0.718321 397 0.50402 396.913 0.346015 396.759C0.18801 396.605 0.0992432 396.396 0.0992432 396.177C0.0992432 395.959 0.18801 395.75 0.346015 395.596C0.50402 395.441 0.718321 395.355 0.941774 395.355H180.273C180.384 395.354 180.494 395.376 180.596 395.417C180.699 395.458 180.792 395.519 180.87 395.595C180.948 395.671 181.01 395.762 181.053 395.862C181.095 395.962 181.116 396.069 181.116 396.177Z" fill="#BBC4D1"/>
</g>
<defs>
<clipPath id="clip0_19_31">
<rect width="524" height="397" fill="white"/>
</clipPath>
</defs>
</svg>
