<svg width="140" height="28" viewBox="0 0 140 28" fill="none" xmlns="http://www.w3.org/2000/svg">
<path d="M21.0142 23.1816V27.6206H1.47667V23.1816H21.0142ZM20.7302 3.16802L3.99459 27.6206H0V24.3577L16.8682 0H20.7302V3.16802ZM18.7803 0V4.45799H0.0189317V0H18.7803Z" fill="#3270F5"/>
<path d="M33.3009 28C31.7106 28 30.2844 27.7471 29.0223 27.2412C27.7602 26.7227 26.6874 26.0081 25.8039 25.0976C24.9331 24.187 24.2641 23.131 23.7972 21.9295C23.3302 20.7154 23.0967 19.4255 23.0967 18.0596V17.3008C23.0967 15.7453 23.3176 14.3225 23.7593 13.0325C24.201 11.7425 24.8321 10.6233 25.6525 9.6748C26.4855 8.72629 27.4952 7.9991 28.6815 7.49323C29.8679 6.97471 31.2058 6.71545 32.6951 6.71545C34.1465 6.71545 35.4338 6.95574 36.5571 7.43631C37.6804 7.91689 38.6207 8.59982 39.378 9.4851C40.1478 10.3704 40.7284 11.4327 41.1197 12.6721C41.5109 13.8988 41.7066 15.2647 41.7066 16.7696V19.0461H25.4253V15.4038H36.3489V14.9865C36.3489 14.2276 36.2101 13.551 35.9324 12.9566C35.6673 12.3496 35.2635 11.869 34.7208 11.5149C34.178 11.1608 33.4839 10.9837 32.6383 10.9837C31.9189 10.9837 31.3004 11.1418 30.783 11.458C30.2655 11.7742 29.8427 12.2168 29.5145 12.7859C29.199 13.355 28.9592 14.0253 28.7951 14.7967C28.6437 15.5556 28.5679 16.3902 28.5679 17.3008V18.0596C28.5679 18.8817 28.6815 19.6405 28.9087 20.336C29.1485 21.0316 29.483 21.6323 29.9121 22.1382C30.3538 22.6441 30.8839 23.0361 31.5024 23.3144C32.1334 23.5926 32.8465 23.7317 33.6417 23.7317C34.6261 23.7317 35.5411 23.542 36.3867 23.1626C37.245 22.7706 37.9833 22.1825 38.6018 21.3984L41.2522 24.2818C40.8231 24.9015 40.2362 25.4959 39.4916 26.065C38.7595 26.6341 37.876 27.1021 36.8411 27.4688C35.8062 27.8229 34.6261 28 33.3009 28Z" fill="#010110"/>
<path d="M55.8864 21.9485C55.8864 21.5565 55.7728 21.2023 55.5456 20.8862C55.3185 20.57 54.8956 20.2791 54.2772 20.0136C53.6714 19.7353 52.7942 19.4824 51.6457 19.2547C50.6108 19.0271 49.6453 18.7425 48.7492 18.4011C47.8657 18.047 47.0958 17.6233 46.4395 17.1301C45.7958 16.6369 45.291 16.0551 44.9249 15.3848C44.5589 14.7019 44.3759 13.9241 44.3759 13.0515C44.3759 12.1915 44.5589 11.3821 44.9249 10.6233C45.3036 9.8645 45.84 9.19422 46.5341 8.61247C47.2409 8.01807 48.0992 7.55646 49.1089 7.22764C50.1312 6.88618 51.2797 6.71545 52.5544 6.71545C54.334 6.71545 55.8612 7 57.1359 7.56911C58.4233 8.13821 59.4077 8.92231 60.0893 9.92141C60.7834 10.9079 61.1305 12.0334 61.1305 13.2981H55.6782C55.6782 12.7669 55.5646 12.2927 55.3374 11.8753C55.1228 11.4453 54.7821 11.1102 54.3151 10.8699C53.8607 10.617 53.2675 10.4905 52.5355 10.4905C51.9297 10.4905 51.4059 10.598 50.9642 10.813C50.5224 11.0154 50.1817 11.2936 49.9419 11.6477C49.7147 11.9892 49.6011 12.3686 49.6011 12.7859C49.6011 13.1021 49.6642 13.3866 49.7904 13.6396C49.9292 13.8799 50.1501 14.1012 50.453 14.3035C50.7559 14.5059 51.1472 14.6956 51.6268 14.8726C52.119 15.037 52.7248 15.1888 53.4442 15.3279C54.9209 15.6314 56.2398 16.0298 57.4009 16.523C58.5621 17.0036 59.4834 17.6612 60.165 18.4959C60.8465 19.318 61.1873 20.3993 61.1873 21.7398C61.1873 22.6504 60.9853 23.4851 60.5815 24.2439C60.1776 25.0027 59.597 25.6667 58.8398 26.2358C58.0825 26.7922 57.1738 27.2285 56.1136 27.5447C55.066 27.8482 53.886 28 52.5734 28C50.6676 28 49.0521 27.6585 47.7268 26.9756C46.4142 26.2927 45.4172 25.4264 44.7356 24.3767C44.0667 23.3144 43.7323 22.2267 43.7323 21.1138H48.9006C48.9258 21.86 49.1152 22.4607 49.4686 22.916C49.8346 23.3713 50.2952 23.7001 50.8506 23.9024C51.4185 24.1048 52.0307 24.206 52.687 24.206C53.3937 24.206 53.9806 24.1111 54.4476 23.9214C54.9146 23.7191 55.268 23.4535 55.5078 23.1247C55.7602 22.7832 55.8864 22.3911 55.8864 21.9485Z" fill="#010110"/>
<path d="M74.7613 7.09485V10.9648H62.8343V7.09485H74.7613ZM65.7877 2.02981H71.24V21.4363C71.24 22.0307 71.3158 22.486 71.4672 22.8022C71.6313 23.1183 71.8711 23.3397 72.1866 23.4661C72.5021 23.5799 72.8997 23.6369 73.3793 23.6369C73.7201 23.6369 74.023 23.6242 74.288 23.5989C74.5657 23.561 74.7992 23.523 74.9885 23.4851L75.0074 27.5068C74.5405 27.6585 74.0356 27.7787 73.4929 27.8672C72.9502 27.9557 72.3507 28 71.6944 28C70.4954 28 69.4478 27.804 68.5517 27.4119C67.6682 27.0072 66.9867 26.3622 66.5071 25.477C66.0275 24.5917 65.7877 23.4282 65.7877 21.9865V2.02981Z" fill="#010110"/>
<path d="M76.503 17.5664V17.168C76.503 15.6631 76.7176 14.2782 77.1467 13.0136C77.5758 11.7362 78.2006 10.6296 79.021 9.69377C79.8413 8.7579 80.851 8.03071 82.05 7.5122C83.249 6.98103 84.6247 6.71545 86.1771 6.71545C87.7295 6.71545 89.1116 6.98103 90.3232 7.5122C91.5348 8.03071 92.5508 8.7579 93.3712 9.69377C94.2042 10.6296 94.8352 11.7362 95.2644 13.0136C95.6935 14.2782 95.908 15.6631 95.908 17.168V17.5664C95.908 19.0587 95.6935 20.4435 95.2644 21.7209C94.8352 22.9855 94.2042 24.0921 93.3712 25.0407C92.5508 25.9765 91.5411 26.7037 90.3421 27.2222C89.1431 27.7407 87.7674 28 86.215 28C84.6626 28 83.2806 27.7407 82.069 27.2222C80.87 26.7037 79.854 25.9765 79.021 25.0407C78.2006 24.0921 77.5758 22.9855 77.1467 21.7209C76.7176 20.4435 76.503 19.0587 76.503 17.5664ZM81.9554 17.168V17.5664C81.9554 18.4264 82.0311 19.2294 82.1826 19.9756C82.334 20.7218 82.5738 21.3794 82.902 21.9485C83.2427 22.505 83.6845 22.9413 84.2272 23.2575C84.7699 23.5736 85.4325 23.7317 86.215 23.7317C86.9723 23.7317 87.6223 23.5736 88.165 23.2575C88.7077 22.9413 89.1431 22.505 89.4713 21.9485C89.7994 21.3794 90.0392 20.7218 90.1907 19.9756C90.3547 19.2294 90.4368 18.4264 90.4368 17.5664V17.168C90.4368 16.3333 90.3547 15.5492 90.1907 14.8157C90.0392 14.0696 89.7931 13.4119 89.4523 12.8428C89.1242 12.2611 88.6888 11.8058 88.146 11.477C87.6033 11.1481 86.947 10.9837 86.1771 10.9837C85.4073 10.9837 84.751 11.1481 84.2082 11.477C83.6782 11.8058 83.2427 12.2611 82.902 12.8428C82.5738 13.4119 82.334 14.0696 82.1826 14.8157C82.0311 15.5492 81.9554 16.3333 81.9554 17.168Z" fill="#010110"/>
<path d="M104.711 11.5718V27.6206H99.259V7.09485H104.389L104.711 11.5718ZM110.883 6.96206L110.788 12.0271C110.523 11.9892 110.201 11.9575 109.823 11.9323C109.457 11.8943 109.122 11.8753 108.819 11.8753C108.05 11.8753 107.381 11.9765 106.813 12.1789C106.257 12.3686 105.79 12.6531 105.412 13.0325C105.046 13.4119 104.768 13.8735 104.579 14.4173C104.402 14.9612 104.301 15.5808 104.276 16.2764L103.178 15.935C103.178 14.607 103.31 13.3866 103.575 12.2737C103.84 11.1481 104.225 10.168 104.73 9.33333C105.248 8.49864 105.879 7.85366 106.623 7.39837C107.368 6.94309 108.22 6.71545 109.179 6.71545C109.482 6.71545 109.791 6.74074 110.107 6.79133C110.422 6.82927 110.681 6.88618 110.883 6.96206Z" fill="#010110"/>
<path d="M123.87 22.9919V13.8482C123.87 13.1906 123.763 12.6278 123.548 12.1599C123.334 11.6793 122.999 11.3062 122.545 11.0407C122.103 10.7751 121.529 10.6423 120.822 10.6423C120.216 10.6423 119.693 10.7498 119.251 10.9648C118.809 11.1671 118.468 11.4643 118.229 11.8564C117.989 12.2358 117.869 12.6847 117.869 13.2033H112.417C112.417 12.3306 112.618 11.5023 113.022 10.7182C113.426 9.93406 114.013 9.24481 114.783 8.65041C115.553 8.04336 116.468 7.56911 117.528 7.22764C118.601 6.88618 119.8 6.71545 121.125 6.71545C122.715 6.71545 124.129 6.98103 125.366 7.5122C126.603 8.04336 127.574 8.84011 128.281 9.90244C129.001 10.9648 129.36 12.2927 129.36 13.8862V22.6694C129.36 23.7949 129.43 24.7182 129.569 25.439C129.707 26.1472 129.909 26.7669 130.174 27.2981V27.6206H124.665C124.4 27.0641 124.198 26.3686 124.06 25.5339C123.933 24.6865 123.87 23.8392 123.87 22.9919ZM124.59 15.1192L124.627 18.2114H121.579C120.86 18.2114 120.235 18.2936 119.705 18.458C119.175 18.6224 118.74 18.8564 118.399 19.1599C118.058 19.4508 117.806 19.7922 117.642 20.1843C117.49 20.5763 117.414 21.0063 117.414 21.4743C117.414 21.9422 117.522 22.3659 117.736 22.7453C117.951 23.112 118.26 23.4029 118.664 23.6179C119.068 23.8202 119.541 23.9214 120.084 23.9214C120.904 23.9214 121.617 23.757 122.223 23.4282C122.829 23.0994 123.296 22.6947 123.624 22.2141C123.965 21.7335 124.142 21.2782 124.154 20.8482L125.593 23.1626C125.391 23.6811 125.113 24.2186 124.76 24.7751C124.419 25.3315 123.984 25.8564 123.454 26.3496C122.924 26.8302 122.286 27.2285 121.542 27.5447C120.797 27.8482 119.913 28 118.891 28C117.591 28 116.411 27.7407 115.351 27.2222C114.303 26.6911 113.47 25.9639 112.852 25.0407C112.246 24.1048 111.943 23.0425 111.943 21.8537C111.943 20.7787 112.145 19.8238 112.549 18.9892C112.953 18.1545 113.546 17.4526 114.329 16.8835C115.124 16.3017 116.114 15.8654 117.301 15.5745C118.487 15.271 119.863 15.1192 121.428 15.1192H124.59Z" fill="#010110"/>
<path d="M133.828 24.9837C133.828 24.1743 134.106 23.4977 134.661 22.9539C135.229 22.4101 135.98 22.1382 136.914 22.1382C137.848 22.1382 138.593 22.4101 139.148 22.9539C139.716 23.4977 140 24.1743 140 24.9837C140 25.7931 139.716 26.4697 139.148 27.0136C138.593 27.5574 137.848 27.8293 136.914 27.8293C135.98 27.8293 135.229 27.5574 134.661 27.0136C134.106 26.4697 133.828 25.7931 133.828 24.9837Z" fill="#010110"/>
</svg>
