<svg width="32" height="36" viewBox="0 0 32 36" fill="none" xmlns="http://www.w3.org/2000/svg">
<path d="M0 29.25C0 30.4945 1.02143 31.5 2.28571 31.5H29.7143C30.9786 31.5 32 30.4945 32 29.25C32 28.0055 30.9786 27 29.7143 27H2.28571C1.02143 27 0 28.0055 0 29.25ZM0 18C0 19.2445 1.02143 20.25 2.28571 20.25H29.7143C30.9786 20.25 32 19.2445 32 18C32 16.7555 30.9786 15.75 29.7143 15.75H2.28571C1.02143 15.75 0 16.7555 0 18ZM32 6.75C32 5.50547 30.9786 4.5 29.7143 4.5H2.28571C1.02143 4.5 0 5.50547 0 6.75C0 7.99453 1.02143 9 2.28571 9H29.7143C30.9786 9 32 7.99453 32 6.75Z" fill="#010110"/>
</svg>
